<?xml version="1.0" encoding="UTF-8"?>
<svg id="Capa_1" data-name="Capa 1" xmlns="http://www.w3.org/2000/svg" viewBox="0 0 1920 435">
  <defs>
    <style>
      .cls-1 {
        fill: #fff;
      }

      .cls-2 {
        fill: #ffd244;
      }
    </style>
  </defs>
  <g>
    <path class="cls-2" d="m384.67,179.04h-134.27c-3.07,0-5.77-1.11-8.12-3.36-2.34-2.24-3.52-4.9-3.52-7.96v-78.04c0-4.09-1.47-7.56-4.44-10.42-2.95-2.85-6.38-4.28-10.25-4.28-4.08,0-7.56,1.43-10.41,4.28-2.85,2.86-4.28,6.34-4.28,10.42v78.04c0,5.71,1.13,11.01,3.36,15.92,2.26,4.88,5.26,9.19,9.04,12.84,3.76,3.67,8.21,6.58,13.31,8.72,5.1,2.16,10.51,3.24,16.22,3.24h133.36c4.07,0,7.54-1.44,10.4-4.32,2.86-2.84,4.28-6.31,4.28-10.4s-1.43-7.54-4.28-10.4c-2.86-2.87-6.33-4.28-10.4-4.28Z"/>
    <path class="cls-2" d="m184.47,179.04H50.18c-3.06,0-5.76-1.11-8.11-3.36-2.34-2.24-3.51-4.9-3.51-7.96v-11.35h131.82c3.82,0,7.07-1.43,9.73-4.27,2.69-2.86,4.02-6.34,4.02-10.42s-1.33-7.54-4.02-10.43c-2.66-2.85-5.91-4.27-9.73-4.27H38.39v-11.3c0-3.06,1.17-5.73,3.51-7.96,2.35-2.24,5.06-3.36,8.12-3.36h134.27c4.07,0,7.55-1.43,10.42-4.29,2.84-2.85,4.27-6.34,4.27-10.39s-1.43-7.56-4.27-10.42c-2.86-2.85-6.34-4.28-10.42-4.28H50.94c-5.71,0-11.12,1.08-16.23,3.22-5.1,2.15-9.54,5.05-13.31,8.73-3.77,3.67-6.79,7.96-9.03,12.85-2.24,4.9-3.37,10.19-3.37,15.92v43.32c0,.64.11,1.22.18,1.82v6.89c0,5.71,1.11,11.01,3.37,15.92,2.23,4.88,5.24,9.19,9.03,12.84,3.76,3.67,8.22,6.58,13.3,8.72,5.11,2.16,10.51,3.24,16.23,3.24h133.36c4.07,0,7.53-1.44,10.39-4.3,2.86-2.86,4.29-6.33,4.29-10.42s-1.44-7.54-4.29-10.4c-2.86-2.87-6.32-4.28-10.39-4.28Z"/>
    <path class="cls-2" d="m1047.63,97.63c-4.59-6.32-10.14-11.58-16.67-15.75-6.54-4.18-13.97-6.49-22.35-6.9h-90.21c-8.77,0-16.63,2.05-23.56,6.12-6.94,4.09-12.86,9.34-17.76,15.77-4.88,6.43-8.62,13.57-11.15,21.42-2.56,7.87-3.85,15.67-3.85,23.42s1.22,15.2,3.68,22.95c2.46,7.76,5.97,14.8,10.57,21.13,4.58,6.31,10.14,11.57,16.67,15.76,6.54,4.17,13.97,6.49,22.34,6.9h90.21c8.76,0,16.62-2.04,23.57-6.13,6.93-4.07,12.86-9.34,17.74-15.77,4.9-6.41,8.63-13.57,11.19-21.42,2.54-7.85,3.81-15.67,3.81-23.42s-1.21-15.19-3.66-22.96c-2.46-7.73-5.98-14.78-10.57-21.12Zm-15.6,56.19c-.93,4.35-2.66,8.4-5.23,12.07-2.53,3.67-6.06,6.78-10.54,9.34-4.49,2.54-10.2,3.82-17.13,3.82h-74.3c-7.14,0-12.89-1.27-17.29-3.82-4.38-2.56-7.84-5.67-10.4-9.34-2.54-3.67-4.28-7.72-5.21-12.07-.91-4.39-1.37-8.43-1.37-12.11s.46-7.69,1.37-12.09c.92-4.38,2.66-8.42,5.21-12.08,2.56-3.67,6.02-6.76,10.4-9.34,4.4-2.55,10.16-3.82,17.29-3.82h74.3c6.93,0,12.64,1.27,17.13,3.82,4.49,2.58,8.01,5.68,10.54,9.34,2.57,3.67,4.3,7.7,5.23,12.08.92,4.4,1.37,8.43,1.37,12.09s-.46,7.72-1.37,12.11Z"/>
    <path class="cls-2" d="m1487.15,183.33l-74.37-99.47c-3.48-4.69-7.96-8.35-13.48-11.01-5.52-2.65-11.32-3.99-17.45-3.99-6.54,0-12.66,1.49-18.37,4.45-5.72,2.97-10.3,6.78-13.77,11.49l-74.37,100.09c-2.04,2.23-3.07,5.2-3.07,8.85,0,4.09,1.42,7.56,4.29,10.42,2.85,2.87,6.32,4.3,10.41,4.3,4.49,0,8.26-1.85,11.33-5.53l16.44-21.83h134.23l16.13,21.53c2.85,3.88,6.74,5.83,11.63,5.83,4.08,0,7.54-1.43,10.42-4.3,2.85-2.86,4.28-6.33,4.28-10.42,0-2.02-.42-3.91-1.23-5.64-.82-1.74-1.82-3.31-3.05-4.76Zm-150.27-31.65l33.34-44.27c1.23-1.6,2.91-3.41,5.05-5.35,2.15-1.93,4.34-2.91,6.58-2.91s4.44.98,6.57,2.91c2.16,1.94,3.94,3.75,5.36,5.35l33.17,44.27h-90.07Z"/>
    <path class="cls-2" d="m1686.74,96.87c-4.91-6.43-10.83-11.68-17.76-15.74-6.94-4.09-14.79-6.15-23.56-6.15h-129.08c-4.09,0-7.57,1.42-10.42,4.28-2.85,2.86-4.27,6.34-4.27,10.42v104.07c0,4.06,1.42,7.54,4.27,10.39,2.85,2.86,6.33,4.3,10.42,4.3h132.12c8.37-.41,15.82-2.73,22.35-6.9,6.54-4.19,12.09-9.44,16.68-15.76,4.59-6.33,8.12-13.37,10.56-21.13,2.44-7.74,3.67-15.4,3.67-22.95s-1.26-15.56-3.81-23.42c-2.56-7.85-6.29-14.99-11.17-21.42Zm-14.85,56.95c-.92,4.35-2.66,8.4-5.21,12.07-2.56,3.67-6.07,6.78-10.57,9.34-4.47,2.54-10.2,3.82-17.12,3.82h-107.97v-74.67h107.97c6.92,0,12.65,1.27,17.12,3.82,4.5,2.56,8.01,5.68,10.57,9.34,2.55,3.67,4.29,7.7,5.21,12.08.91,4.4,1.38,8.43,1.38,12.09s-.47,7.72-1.38,12.11Z"/>
    <path class="cls-2" d="m1908.03,118.74c-2.44-7.73-5.96-14.78-10.56-21.12-4.59-6.32-10.16-11.58-16.69-15.75-6.52-4.18-13.97-6.49-22.33-6.9h-90.21c-8.75,0-16.61,2.05-23.56,6.12-6.93,4.09-12.85,9.34-17.76,15.77-4.88,6.43-8.61,13.57-11.15,21.42-2.56,7.87-3.82,15.67-3.82,23.42s1.22,15.2,3.67,22.95c2.44,7.76,5.96,14.8,10.55,21.13,4.59,6.31,10.13,11.57,16.68,15.76,6.53,4.17,13.97,6.49,22.34,6.9h90.21c8.76,0,16.62-2.04,23.56-6.13,6.93-4.07,12.86-9.34,17.76-15.77,4.88-6.41,8.61-13.57,11.17-21.42,2.54-7.85,3.83-15.67,3.83-23.42s-1.23-15.19-3.68-22.96Zm-26.16,35.07c-.93,4.35-2.66,8.4-5.22,12.07-2.54,3.67-6.06,6.78-10.56,9.34-4.49,2.54-10.2,3.82-17.14,3.82h-74.28c-7.15,0-12.91-1.27-17.29-3.82-4.39-2.56-7.86-5.67-10.4-9.34-2.57-3.67-4.29-7.72-5.22-12.07-.91-4.39-1.37-8.43-1.37-12.11s.46-7.69,1.37-12.09c.93-4.38,2.65-8.42,5.22-12.08,2.54-3.67,6.01-6.76,10.4-9.34,4.38-2.55,10.14-3.82,17.29-3.82h74.28c6.94,0,12.65,1.27,17.14,3.82,4.5,2.58,8.01,5.68,10.56,9.34,2.56,3.67,4.29,7.7,5.22,12.08.91,4.4,1.36,8.43,1.36,12.09s-.45,7.72-1.36,12.11Z"/>
    <path class="cls-2" d="m1236.81,153.3c5-2.14,9.39-5.07,13.16-8.71,3.79-3.69,6.76-7.96,8.87-12.88,2.16-4.87,3.22-10.18,3.22-15.89s-1.06-11.02-3.22-15.92c-2.11-4.9-5.09-9.19-8.87-12.86-3.77-3.66-8.16-6.6-13.16-8.74-5-2.13-10.36-3.2-16.06-3.2h-133.98c-4.08,0-7.57,1.44-10.41,4.28-2.86,2.86-4.28,6.34-4.28,10.4v104.06c0,4.09,1.43,7.56,4.28,10.41,2.84,2.86,6.33,4.3,10.41,4.3s7.28-1.45,10.25-4.3c2.96-2.86,4.43-6.33,4.43-10.41v-37.33h46.25l92.61,51.06c3.33,1.83,6.85,2.17,10.57.95,3.72-1.22,6.57-3.6,8.56-7.18,1.96-3.56,2.46-7.25,1.5-11.05-.95-3.8-3.11-6.59-6.44-8.44l-46.32-25.33h12.58c5.7,0,11.06-1.08,16.06-3.22Zm-135.35-26.16v-22.67h120.52c3.05,0,5.76,1.14,8.1,3.36,2.34,2.28,3.51,4.92,3.51,7.98,0,3.25-1.17,5.95-3.51,8.11-2.34,2.14-5.06,3.22-8.1,3.22h-120.52Z"/>
    <path class="cls-2" d="m821.99,61.97c-9.78-12.81-21.57-23.28-35.37-31.4-13.82-8.13-29.47-12.21-46.95-12.21h-300.81c-7.4,0-13.73,2.5-19.09,7.19-.55.48-1.12.85-1.65,1.35-5.69,5.7-8.53,12.63-8.53,20.73v66.62l156.06,14.46-43.35-79.83h48.32c.15,0,.31-.06.47-.06.15,0,.3.06.46.06,4.9.11,9.32,1.96,12.58,4.92.16.14.28.32.45.46l76.82,83.34,148.14,13.76-148.21,13.69-76.51,82.38c-.24.24-.47.53-.75.75-3.21,2.9-7.51,4.67-12.29,4.85h-49.57l43.09-79.05-155.73,14.41v66.56c0,7.95,2.75,14.69,8.19,20.31.13.14.22.3.35.41,5.7,5.7,12.6,8.55,20.74,8.55h306.9c16.67-.82,31.5-5.37,44.52-13.73,13-8.33,24.1-18.8,33.25-31.39,9.14-12.6,16.15-26.63,21.02-42.08,4.88-15.46,7.33-30.69,7.33-45.74s-2.54-30.99-7.62-46.65c-5.09-15.64-12.51-29.88-22.25-42.67Z"/>
  </g>
  <g>
    <path class="cls-1" d="m816.9,315.74l-9.76,10.71c-1.59-2.14-3.83-3.89-6.72-5.24-2.9-1.35-5.81-2.02-8.75-2.02-3.89,0-7.34.97-10.35,2.91-3.02,1.94-4.52,4.82-4.52,8.63,0,1.9.34,3.51,1.01,4.82.67,1.31,1.86,2.48,3.57,3.51,1.7,1.03,3.31,1.83,4.82,2.38,1.51.56,3.73,1.31,6.66,2.26,2.78.87,5.06,1.63,6.84,2.26,1.78.64,3.93,1.65,6.43,3.03,2.5,1.39,4.48,2.88,5.95,4.46,1.47,1.59,2.74,3.67,3.81,6.25,1.07,2.58,1.61,5.45,1.61,8.63,0,8.65-2.92,15.29-8.75,19.93-5.83,4.64-13.15,6.96-21.95,6.96-5.63,0-11.05-1.05-16.24-3.15-5.2-2.1-9.42-5.06-12.67-8.87l10.71-10c2.06,2.78,4.8,5.02,8.21,6.72,3.41,1.71,6.82,2.56,10.23,2.56,4.05,0,7.6-1.03,10.65-3.09,3.05-2.06,4.58-5.2,4.58-9.4,0-1.43-.2-2.72-.59-3.87-.4-1.15-1.13-2.2-2.2-3.15s-2-1.72-2.8-2.32c-.79-.59-2.2-1.27-4.22-2.02-2.02-.75-3.47-1.29-4.34-1.61-.87-.32-2.62-.87-5.24-1.67-3.02-.95-5.59-1.94-7.73-2.97-2.14-1.03-4.34-2.44-6.6-4.22-2.26-1.78-3.99-4.08-5.18-6.9-1.19-2.82-1.78-6.09-1.78-9.82,0-8.01,3.03-14.14,9.1-18.38,6.07-4.24,13.31-6.37,21.72-6.37,4.44,0,8.87.77,13.27,2.32,4.4,1.55,8.15,3.79,11.24,6.72Z"/>
    <path class="cls-1" d="m828.44,364.29c0-8.81,2.97-16,8.92-21.6,5.95-5.59,13.33-8.39,22.13-8.39s16.18,2.8,22.13,8.39c5.95,5.59,8.92,12.79,8.92,21.6s-3,16.18-8.98,21.9c-5.99,5.71-13.35,8.57-22.07,8.57s-16.08-2.86-22.07-8.57c-5.99-5.71-8.98-13.01-8.98-21.9Zm18.8-12.85c-2.86,3.65-4.28,7.93-4.28,12.85s1.43,9.24,4.28,12.97c2.86,3.73,6.94,5.59,12.26,5.59s9.4-1.86,12.26-5.59c2.86-3.73,4.28-8.05,4.28-12.97s-1.43-9.2-4.28-12.85c-2.86-3.65-6.94-5.47-12.26-5.47s-9.4,1.83-12.26,5.47Z"/>
    <path class="cls-1" d="m972.54,334.3c6.98,0,12.24,2.24,15.77,6.72,3.53,4.48,5.3,9.94,5.3,16.36v35.7h-14.28v-31.65c0-10.15-3.57-15.23-10.71-15.23-4.13,0-7.26,1.57-9.4,4.7-2.14,3.13-3.21,6.8-3.21,11.01v31.18h-14.28v-34.51c0-3.73-.89-6.72-2.68-8.98-1.79-2.26-4.42-3.39-7.91-3.39-4.05,0-7.14,1.53-9.28,4.58-2.14,3.06-3.21,6.68-3.21,10.89v31.41h-14.28v-57.12h13.57v9.16h.24c1.35-3.09,3.57-5.67,6.66-7.73,3.09-2.06,6.78-3.09,11.07-3.09,8.33,0,14.28,3.61,17.85,10.83,3.97-7.22,10.23-10.83,18.8-10.83Z"/>
    <path class="cls-1" d="m1006.93,364.29c0-8.81,2.97-16,8.92-21.6,5.95-5.59,13.33-8.39,22.13-8.39s16.18,2.8,22.13,8.39c5.95,5.59,8.92,12.79,8.92,21.6s-3,16.18-8.98,21.9c-5.99,5.71-13.35,8.57-22.07,8.57s-16.08-2.86-22.07-8.57c-5.99-5.71-8.98-13.01-8.98-21.9Zm18.8-12.85c-2.86,3.65-4.28,7.93-4.28,12.85s1.43,9.24,4.28,12.97c2.86,3.73,6.94,5.59,12.26,5.59s9.4-1.86,12.26-5.59c2.86-3.73,4.28-8.05,4.28-12.97s-1.43-9.2-4.28-12.85c-2.86-3.65-6.94-5.47-12.26-5.47s-9.4,1.83-12.26,5.47Z"/>
    <path class="cls-1" d="m1123.43,342.99l-9.28,8.21c-1.35-1.74-3.14-3.21-5.36-4.4-2.22-1.19-4.6-1.79-7.14-1.79s-4.7.52-6.49,1.55c-1.79,1.03-2.68,2.58-2.68,4.64s.91,3.45,2.74,4.4c1.82.95,5.04,1.98,9.64,3.09,2.46.56,4.64,1.21,6.54,1.96,1.9.76,3.83,1.77,5.77,3.03,1.94,1.27,3.45,2.94,4.52,5,1.07,2.06,1.61,4.4,1.61,7.02,0,6.51-2.24,11.3-6.72,14.4-4.48,3.09-10.17,4.64-17.08,4.64-4.52,0-8.89-.83-13.09-2.5-4.21-1.67-7.66-3.97-10.35-6.9l9.4-8.81c3.65,4.76,8.53,7.14,14.64,7.14,2.46,0,4.6-.55,6.43-1.67,1.82-1.11,2.74-2.82,2.74-5.12s-.97-3.87-2.92-4.94c-1.94-1.07-5.34-2.16-10.17-3.27-5.16-1.27-9.26-3.07-12.32-5.41-3.05-2.34-4.58-5.93-4.58-10.77,0-5.95,2.22-10.47,6.66-13.57,4.44-3.09,9.8-4.64,16.06-4.64,4.28,0,8.37.76,12.26,2.26,3.89,1.51,6.94,3.65,9.16,6.43Z"/>
    <path class="cls-2" d="m1169.6,393.08l3.57-24.87h-10.71v-10h12.02l2.14-14.52h-10.71v-10h12.02l3.57-24.87h10.47l-3.57,24.87h12.26l3.57-24.87h10.35l-3.57,24.87h10.71v10h-12.14l-2.02,14.52h10.71v10h-11.9l-3.69,24.87h-10.35l3.57-24.87h-12.38l-3.57,24.87h-10.35Zm29.63-49.38h-12.26l-2.02,14.52h12.26l2.02-14.52Z"/>
    <path class="cls-2" d="m1293.95,385.53c-5.63,6.47-13.73,9.7-24.28,9.7s-18.64-3.23-24.28-9.7c-5.63-6.46-8.45-14.34-8.45-23.62v-53.07h11.78v52.36c0,6.59,1.68,12.14,5.06,16.66,3.37,4.52,8.67,6.78,15.89,6.78s12.51-2.26,15.89-6.78c3.37-4.52,5.06-10.07,5.06-16.66v-52.36h11.78v53.07c0,9.28-2.82,17.16-8.45,23.62Z"/>
    <path class="cls-2" d="m1321.2,336.68h10.59c.32,3.81.48,6.9.48,9.28h.36c1.43-3.09,3.85-5.67,7.26-7.74,3.41-2.06,7.1-3.09,11.07-3.09,6.9,0,12.14,2.14,15.71,6.43,3.57,4.28,5.36,9.8,5.36,16.54v34.98h-11.19v-31.3c0-11.5-4.28-17.25-12.85-17.25-4.44,0-8.07,1.71-10.89,5.12-2.82,3.41-4.22,7.89-4.22,13.45v29.99h-11.19v-44.27c0-4.84-.16-8.88-.48-12.14Z"/>
    <path class="cls-2" d="m1439.36,343.46c5.79,5.55,8.69,12.65,8.69,21.3s-2.92,15.79-8.75,21.42c-5.83,5.63-13.07,8.45-21.72,8.45s-15.87-2.81-21.66-8.45c-5.79-5.63-8.69-12.77-8.69-21.42s2.87-15.75,8.63-21.3c5.75-5.55,12.99-8.33,21.72-8.33s15.99,2.78,21.78,8.33Zm-8.03,35.76c3.37-4,5.06-8.82,5.06-14.46s-1.69-10.43-5.06-14.4c-3.37-3.97-7.95-5.95-13.74-5.95s-10.37,1.98-13.74,5.95c-3.37,3.97-5.06,8.77-5.06,14.4s1.68,10.45,5.06,14.46c3.37,4.01,7.95,6.01,13.74,6.01s10.37-2,13.74-6.01Z"/>
    <path class="cls-2" d="m1536.69,381.42c-8.01,9.28-18.92,13.92-32.72,13.92-13.09,0-23.92-4.14-32.49-12.44-8.57-8.29-12.85-18.98-12.85-32.07s4.34-23.94,13.03-32.07c8.69-8.13,19.57-12.2,32.66-12.2,6.11,0,12.04,1.09,17.79,3.27,5.75,2.18,10.33,5.22,13.74,9.1l-13.8,13.8c-1.83-2.54-4.26-4.46-7.32-5.77-3.05-1.31-6.29-1.96-9.7-1.96-7.06,0-12.87,2.44-17.43,7.32-4.56,4.88-6.84,11.05-6.84,18.5s2.22,13.82,6.66,18.62c4.44,4.8,10.19,7.2,17.25,7.2,7.85,0,13.8-2.86,17.85-8.57l14.16,13.33Z"/>
    <path class="cls-2" d="m1596.19,340.49c6.35,5.71,9.52,13.29,9.52,22.73s-3.17,17.1-9.52,22.97c-6.35,5.87-14.16,8.81-23.44,8.81s-16.98-2.93-23.32-8.81c-6.35-5.87-9.52-13.52-9.52-22.97s3.17-17.02,9.52-22.73c6.35-5.71,14.12-8.57,23.32-8.57s17.09,2.86,23.44,8.57Zm-9.28,22.73c0-4.05-1.27-7.57-3.81-10.59-2.54-3.01-5.99-4.52-10.35-4.52s-7.78,1.49-10.23,4.46c-2.46,2.97-3.69,6.53-3.69,10.65s1.25,7.72,3.75,10.77c2.5,3.05,5.93,4.58,10.29,4.58s7.79-1.53,10.29-4.58c2.5-3.05,3.75-6.64,3.75-10.77Z"/>
    <path class="cls-2" d="m1676.63,393.08h-19.63v-32.37c0-8.33-2.94-12.5-8.81-12.5-3.33,0-5.91,1.23-7.73,3.69-1.83,2.46-2.74,5.47-2.74,9.04v32.13h-19.64v-59.26h18.92v8.21h.24c1.43-2.78,3.75-5.12,6.96-7.02,3.21-1.9,6.8-2.86,10.77-2.86,7.38,0,12.83,2.36,16.36,7.08,3.53,4.72,5.3,10.45,5.3,17.19v36.65Z"/>
    <path class="cls-2" d="m1726.49,348.46h-13.92v22.61c0,2.86.55,4.96,1.67,6.31,1.11,1.35,3.01,2.02,5.71,2.02,2.3,0,4.2-.32,5.71-.95l.24,14.28c-3.25,1.19-7.02,1.79-11.3,1.79-7.54,0-12.93-1.82-16.18-5.47-3.25-3.65-4.88-8.84-4.88-15.59v-24.99h-9.52v-14.64h9.4v-15.59h19.16v15.59h13.92v14.64Z"/>
    <path class="cls-2" d="m1756.83,314.9c0,3.02-1.09,5.55-3.27,7.62-2.18,2.06-4.82,3.09-7.91,3.09s-5.73-1.05-7.91-3.15c-2.18-2.1-3.27-4.62-3.27-7.56s1.09-5.36,3.27-7.5c2.18-2.14,4.82-3.21,7.91-3.21s5.73,1.05,7.91,3.15c2.18,2.1,3.27,4.62,3.27,7.56Zm-1.43,78.18h-19.51v-59.26h19.51v59.26Z"/>
    <path class="cls-2" d="m1833.7,387.49c0,11.26-3.09,19.77-9.28,25.52-6.19,5.75-14.72,8.63-25.58,8.63-5.32,0-10.75-.81-16.3-2.44-5.55-1.63-10.27-3.91-14.16-6.84l9.76-13.92c5.71,5,12.26,7.5,19.63,7.5,5.55,0,9.74-1.49,12.55-4.46,2.82-2.97,4.22-7,4.22-12.08v-3.57h-.36c-4.05,5.24-10.04,7.85-17.97,7.85-8.65,0-15.53-2.93-20.65-8.81-5.12-5.87-7.68-13.09-7.68-21.66s2.56-15.89,7.68-21.95c5.12-6.07,11.96-9.1,20.53-9.1s14.79,3.09,18.92,9.28h.24v-7.62h18.44v53.67Zm-22.49-13.69c2.62-2.93,3.93-6.5,3.93-10.71s-1.33-7.75-3.99-10.65c-2.66-2.89-6.13-4.34-10.41-4.34s-7.68,1.43-10.17,4.28c-2.5,2.86-3.75,6.43-3.75,10.71s1.27,7.68,3.81,10.65c2.54,2.97,5.91,4.46,10.11,4.46s7.85-1.47,10.47-4.4Z"/>
    <path class="cls-2" d="m1902.48,340.49c6.35,5.71,9.52,13.29,9.52,22.73s-3.17,17.1-9.52,22.97c-6.35,5.87-14.16,8.81-23.44,8.81s-16.98-2.93-23.32-8.81c-6.35-5.87-9.52-13.52-9.52-22.97s3.17-17.02,9.52-22.73c6.35-5.71,14.12-8.57,23.32-8.57s17.09,2.86,23.44,8.57Zm-9.28,22.73c0-4.05-1.27-7.57-3.81-10.59-2.54-3.01-5.99-4.52-10.35-4.52s-7.78,1.49-10.23,4.46c-2.46,2.97-3.69,6.53-3.69,10.65s1.25,7.72,3.75,10.77c2.5,3.05,5.93,4.58,10.29,4.58s7.79-1.53,10.29-4.58c2.5-3.05,3.75-6.64,3.75-10.77Z"/>
  </g>
</svg>